<svg width="107" height="24" viewBox="0 0 107 24" fill="none" xmlns="http://www.w3.org/2000/svg">
<path d="M7.848 23.192C5.72 23.192 4.016 22.792 2.736 21.992C1.456 21.176 0.816 19.936 0.816 18.272C0.816 17.392 0.968 16.72 1.272 16.256C1.576 15.792 2.024 15.56 2.616 15.56C3.048 15.56 3.4 15.672 3.672 15.896C3.944 16.12 4.08 16.408 4.08 16.76C4.08 17.08 4.056 17.36 4.008 17.6C4.008 17.664 3.992 17.776 3.96 17.936C3.944 18.096 3.936 18.264 3.936 18.44C3.936 19.16 4.296 19.696 5.016 20.048C5.752 20.4 6.776 20.576 8.088 20.576C9.448 20.576 10.512 20.336 11.28 19.856C12.048 19.36 12.432 18.672 12.432 17.792C12.432 17.248 12.256 16.784 11.904 16.4C11.552 16 11.112 15.672 10.584 15.416C10.056 15.144 9.312 14.816 8.352 14.432C7.12 13.952 6.112 13.496 5.328 13.064C4.56 12.632 3.896 12.048 3.336 11.312C2.792 10.56 2.52 9.632 2.52 8.528C2.52 7.376 2.824 6.352 3.432 5.456C4.056 4.56 4.944 3.864 6.096 3.368C7.264 2.872 8.632 2.624 10.2 2.624C11.368 2.624 12.44 2.8 13.416 3.152C14.392 3.488 15.168 4.008 15.744 4.712C16.336 5.416 16.632 6.28 16.632 7.304C16.632 8.312 16.48 9.072 16.176 9.584C15.872 10.096 15.424 10.352 14.832 10.352C14.416 10.352 14.064 10.224 13.776 9.968C13.504 9.712 13.368 9.408 13.368 9.056C13.368 8.752 13.392 8.472 13.44 8.216C13.488 7.736 13.512 7.432 13.512 7.304C13.512 6.632 13.184 6.12 12.528 5.768C11.872 5.416 11.056 5.24 10.08 5.24C8.704 5.24 7.648 5.496 6.912 6.008C6.192 6.504 5.832 7.208 5.832 8.12C5.832 8.728 6.016 9.248 6.384 9.68C6.768 10.112 7.24 10.472 7.8 10.76C8.36 11.048 9.144 11.392 10.152 11.792C11.368 12.288 12.344 12.736 13.08 13.136C13.816 13.536 14.44 14.08 14.952 14.768C15.48 15.456 15.744 16.304 15.744 17.312C15.744 19.2 15.024 20.656 13.584 21.68C12.16 22.688 10.248 23.192 7.848 23.192ZM20.1234 23.12C19.4034 23.12 18.8114 22.792 18.3474 22.136C17.8994 21.464 17.6754 20.632 17.6754 19.64C17.6754 18.44 17.7554 17.344 17.9154 16.352C18.0754 15.344 18.3394 14.28 18.7074 13.16C18.8674 12.68 19.0914 12.336 19.3794 12.128C19.6674 11.92 20.1234 11.816 20.7474 11.816C21.0994 11.816 21.3394 11.872 21.4674 11.984C21.6114 12.096 21.6834 12.264 21.6834 12.488C21.6834 12.616 21.5954 13.048 21.4194 13.784C21.2594 14.376 21.1314 14.912 21.0354 15.392C20.7154 17.072 20.5554 18.192 20.5554 18.752C20.5554 19.088 20.5954 19.328 20.6754 19.472C20.7554 19.6 20.8834 19.664 21.0594 19.664C21.2994 19.664 21.5954 19.424 21.9474 18.944C22.3154 18.464 22.6994 17.736 23.0994 16.76C23.5154 15.784 23.9154 14.584 24.2994 13.16C24.4274 12.68 24.6194 12.336 24.8754 12.128C25.1474 11.92 25.5474 11.816 26.0754 11.816C26.4434 11.816 26.6994 11.864 26.8434 11.96C26.9874 12.04 27.0594 12.2 27.0594 12.44C27.0594 12.84 26.8594 13.936 26.4594 15.728C26.0114 17.776 25.7874 19.04 25.7874 19.52C25.7874 19.824 25.8514 20.064 25.9794 20.24C26.1074 20.4 26.2754 20.48 26.4834 20.48C26.8034 20.48 27.1794 20.288 27.6114 19.904C28.0594 19.504 28.6514 18.864 29.3874 17.984C29.5794 17.76 29.7954 17.648 30.0354 17.648C30.2434 17.648 30.4034 17.744 30.5154 17.936C30.6434 18.128 30.7074 18.392 30.7074 18.728C30.7074 19.368 30.5554 19.864 30.2514 20.216C29.5634 21.064 28.8194 21.76 28.0194 22.304C27.2354 22.848 26.3394 23.12 25.3314 23.12C24.5634 23.12 23.9954 22.824 23.6274 22.232C23.2754 21.64 23.0994 20.808 23.0994 19.736C22.8274 20.824 22.4194 21.664 21.8754 22.256C21.3314 22.832 20.7474 23.12 20.1234 23.12ZM30.4654 23.12C29.8574 23.12 29.4254 22.8 29.1694 22.16C28.9294 21.52 28.8094 20.496 28.8094 19.088C28.8094 17.008 29.1054 15.032 29.6974 13.16C29.8414 12.696 30.0734 12.36 30.3934 12.152C30.7294 11.928 31.1934 11.816 31.7854 11.816C32.1054 11.816 32.3294 11.856 32.4574 11.936C32.5854 12.016 32.6494 12.168 32.6494 12.392C32.6494 12.648 32.5294 13.224 32.2894 14.12C32.1294 14.76 32.0014 15.32 31.9054 15.8C31.8094 16.28 31.7294 16.872 31.6654 17.576C32.1934 16.2 32.7854 15.08 33.4414 14.216C34.0974 13.352 34.7374 12.736 35.3614 12.368C36.0014 12 36.5854 11.816 37.1134 11.816C38.1534 11.816 38.6734 12.336 38.6734 13.376C38.6734 14 38.4974 15.128 38.1454 16.76C37.8414 18.152 37.6894 19.072 37.6894 19.52C37.6894 20.16 37.9214 20.48 38.3854 20.48C38.7054 20.48 39.0814 20.288 39.5134 19.904C39.9614 19.504 40.5534 18.864 41.2894 17.984C41.4814 17.76 41.6974 17.648 41.9374 17.648C42.1454 17.648 42.3054 17.744 42.4174 17.936C42.5454 18.128 42.6094 18.392 42.6094 18.728C42.6094 19.368 42.4574 19.864 42.1534 20.216C41.4654 21.064 40.7214 21.76 39.9214 22.304C39.1374 22.848 38.2414 23.12 37.2334 23.12C36.4174 23.12 35.8014 22.888 35.3854 22.424C34.9694 21.944 34.7614 21.256 34.7614 20.36C34.7614 19.912 34.8734 19.112 35.0974 17.96C35.3054 16.952 35.4094 16.256 35.4094 15.872C35.4094 15.616 35.3214 15.488 35.1454 15.488C34.9374 15.488 34.6414 15.76 34.2574 16.304C33.8894 16.832 33.5054 17.536 33.1054 18.416C32.7214 19.296 32.4094 20.224 32.1694 21.2C31.9934 21.952 31.7854 22.464 31.5454 22.736C31.3214 22.992 30.9614 23.12 30.4654 23.12ZM57.6356 18.632C57.8756 18.536 58.0756 18.488 58.2356 18.488C58.4916 18.488 58.6836 18.584 58.8116 18.776C58.9396 18.968 59.0036 19.216 59.0036 19.52C59.0036 20 58.8836 20.408 58.6436 20.744C58.4196 21.08 58.0276 21.384 57.4676 21.656C56.5236 22.104 55.2996 22.464 53.7956 22.736C52.2916 22.992 50.8116 23.12 49.3556 23.12C47.3396 23.12 45.6516 22.896 44.2916 22.448C42.9316 21.984 41.9156 21.352 41.2436 20.552C40.5876 19.752 40.2596 18.848 40.2596 17.84C40.2596 16.464 40.6996 15.296 41.5796 14.336C42.4756 13.36 43.7876 12.656 45.5156 12.224C44.5716 11.952 43.8436 11.472 43.3316 10.784C42.8356 10.096 42.5876 9.328 42.5876 8.48C42.5876 7.328 42.9476 6.312 43.6676 5.432C44.4036 4.536 45.3876 3.848 46.6196 3.368C47.8516 2.888 49.2036 2.648 50.6756 2.648C52.6596 2.648 54.1476 3.08 55.1396 3.944C56.1316 4.792 56.6276 5.896 56.6276 7.256C56.6276 8.2 56.4516 8.968 56.0996 9.56C55.7636 10.136 55.2756 10.424 54.6356 10.424C54.1876 10.424 53.8356 10.328 53.5796 10.136C53.3236 9.928 53.1956 9.624 53.1956 9.224C53.1956 8.952 53.2356 8.656 53.3156 8.336C53.3956 7.808 53.4356 7.448 53.4356 7.256C53.4356 6.68 53.2196 6.216 52.7876 5.864C52.3556 5.496 51.6356 5.312 50.6276 5.312C49.2676 5.312 48.1796 5.6 47.3636 6.176C46.5476 6.752 46.1396 7.528 46.1396 8.504C46.1396 9.256 46.4436 9.88 47.0516 10.376C47.6756 10.856 48.6836 11.12 50.0756 11.168C50.4276 11.184 50.6756 11.264 50.8196 11.408C50.9636 11.552 51.0356 11.792 51.0356 12.128C51.0356 13.184 50.5556 13.72 49.5956 13.736C48.2676 13.768 47.1636 13.952 46.2836 14.288C45.4196 14.624 44.7876 15.056 44.3876 15.584C44.0036 16.096 43.8116 16.648 43.8116 17.24C43.8116 18.232 44.2756 18.984 45.2036 19.496C46.1316 19.992 47.6036 20.24 49.6196 20.24C50.9476 20.24 52.3476 20.088 53.8196 19.784C55.3076 19.464 56.5796 19.08 57.6356 18.632ZM70.284 17.648C70.492 17.648 70.652 17.744 70.764 17.936C70.892 18.128 70.956 18.392 70.956 18.728C70.956 19.368 70.804 19.864 70.5 20.216C69.844 21.016 69.124 21.704 68.34 22.28C67.556 22.84 66.78 23.12 66.012 23.12C64.796 23.12 63.868 22.408 63.228 20.984C62.556 21.832 61.964 22.4 61.452 22.688C60.956 22.976 60.372 23.12 59.7 23.12C58.724 23.12 57.916 22.76 57.276 22.04C56.652 21.304 56.34 20.352 56.34 19.184C56.34 17.904 56.612 16.72 57.156 15.632C57.7 14.528 58.444 13.632 59.388 12.944C60.348 12.24 61.42 11.824 62.604 11.696C62.908 8.592 63.484 5.944 64.332 3.752C65.196 1.544 66.324 0.439999 67.716 0.439999C68.404 0.439999 68.972 0.751999 69.42 1.376C69.884 2 70.116 2.944 70.116 4.208C70.116 6 69.676 8.096 68.796 10.496C67.916 12.896 66.74 15.36 65.268 17.888C65.332 18.816 65.468 19.48 65.676 19.88C65.9 20.28 66.18 20.48 66.516 20.48C66.948 20.48 67.388 20.288 67.836 19.904C68.284 19.52 68.884 18.88 69.636 17.984C69.828 17.76 70.044 17.648 70.284 17.648ZM67.452 2.792C67.148 2.792 66.844 3.336 66.54 4.424C66.236 5.496 65.972 6.904 65.748 8.648C65.54 10.392 65.388 12.216 65.292 14.12C67.084 10.216 67.98 7.08 67.98 4.712C67.98 4.104 67.924 3.632 67.812 3.296C67.716 2.96 67.596 2.792 67.452 2.792ZM60.54 20.696C60.844 20.696 61.148 20.576 61.452 20.336C61.756 20.08 62.14 19.616 62.604 18.944C62.444 18.08 62.364 17.112 62.364 16.04C62.364 15.656 62.38 15.032 62.412 14.168C61.532 14.44 60.796 15.032 60.204 15.944C59.628 16.84 59.34 17.84 59.34 18.944C59.34 20.112 59.74 20.696 60.54 20.696ZM72.1476 10.232C71.4756 10.232 70.9716 10.08 70.6356 9.776C70.2996 9.456 70.1316 9.016 70.1316 8.456C70.1316 7.896 70.3476 7.432 70.7796 7.064C71.2276 6.68 71.7796 6.488 72.4356 6.488C73.0276 6.488 73.5076 6.632 73.8756 6.92C74.2436 7.208 74.4276 7.616 74.4276 8.144C74.4276 8.784 74.2196 9.296 73.8036 9.68C73.3876 10.048 72.8356 10.232 72.1476 10.232ZM71.9556 23.12C70.9156 23.12 70.1556 22.752 69.6756 22.016C69.2116 21.28 68.9796 20.304 68.9796 19.088C68.9796 18.368 69.0676 17.448 69.2436 16.328C69.4356 15.192 69.6756 14.136 69.9636 13.16C70.1076 12.648 70.2996 12.296 70.5396 12.104C70.7796 11.912 71.1636 11.816 71.6916 11.816C72.5076 11.816 72.9156 12.088 72.9156 12.632C72.9156 13.032 72.7636 13.96 72.4596 15.416C72.0756 17.176 71.8836 18.368 71.8836 18.992C71.8836 19.472 71.9476 19.84 72.0756 20.096C72.2036 20.352 72.4196 20.48 72.7236 20.48C73.0116 20.48 73.3716 20.28 73.8036 19.88C74.2356 19.48 74.8116 18.848 75.5316 17.984C75.7236 17.76 75.9396 17.648 76.1796 17.648C76.3876 17.648 76.5476 17.744 76.6596 17.936C76.7876 18.128 76.8516 18.392 76.8516 18.728C76.8516 19.368 76.6996 19.864 76.3956 20.216C74.8116 22.152 73.3316 23.12 71.9556 23.12ZM85.6138 17.648C85.8218 17.648 85.9818 17.744 86.0938 17.936C86.2218 18.128 86.2858 18.392 86.2858 18.728C86.2858 19.368 86.1338 19.864 85.8298 20.216C85.1418 21.064 84.3898 21.76 83.5738 22.304C82.7578 22.848 81.8218 23.12 80.7658 23.12C77.5018 23.12 75.8698 20.824 75.8698 16.232C75.8698 15.528 75.8938 14.816 75.9418 14.096H75.0058C74.5258 14.096 74.1978 14.008 74.0218 13.832C73.8618 13.656 73.7818 13.376 73.7818 12.992C73.7818 12.096 74.1418 11.648 74.8618 11.648H76.2298C76.5018 9.888 76.9178 8.28 77.4778 6.824C78.0378 5.368 78.7098 4.208 79.4938 3.344C80.2938 2.48 81.1498 2.048 82.0618 2.048C82.7338 2.048 83.2618 2.344 83.6458 2.936C84.0298 3.528 84.2218 4.272 84.2218 5.168C84.2218 7.648 83.1818 9.808 81.1018 11.648H83.7898C84.0458 11.648 84.2298 11.704 84.3418 11.816C84.4538 11.928 84.5098 12.136 84.5098 12.44C84.5098 13.544 83.6058 14.096 81.7978 14.096H78.8698C78.8378 14.896 78.8218 15.52 78.8218 15.968C78.8218 17.632 79.0138 18.8 79.3978 19.472C79.7978 20.144 80.4218 20.48 81.2698 20.48C81.9578 20.48 82.5658 20.272 83.0938 19.856C83.6218 19.44 84.2458 18.816 84.9658 17.984C85.1578 17.76 85.3738 17.648 85.6138 17.648ZM81.4138 4.352C81.1738 4.352 80.9018 4.656 80.5978 5.264C80.3098 5.856 80.0298 6.688 79.7578 7.76C79.5018 8.816 79.2858 9.992 79.1098 11.288C80.0538 10.472 80.7578 9.56 81.2218 8.552C81.7018 7.528 81.9418 6.6 81.9418 5.768C81.9418 4.824 81.7658 4.352 81.4138 4.352ZM96.5717 15.632C96.7797 15.632 96.9397 15.736 97.0517 15.944C97.1637 16.152 97.2197 16.416 97.2197 16.736C97.2197 17.504 96.9877 17.96 96.5237 18.104C95.5637 18.44 94.5077 18.632 93.3557 18.68C93.0517 20.024 92.4517 21.104 91.5557 21.92C90.6597 22.72 89.6437 23.12 88.5077 23.12C87.5477 23.12 86.7237 22.888 86.0357 22.424C85.3637 21.96 84.8517 21.344 84.4997 20.576C84.1477 19.808 83.9717 18.976 83.9717 18.08C83.9717 16.864 84.2037 15.784 84.6677 14.84C85.1317 13.88 85.7717 13.136 86.5877 12.608C87.4037 12.064 88.3077 11.792 89.2997 11.792C90.5157 11.792 91.4917 12.216 92.2277 13.064C92.9797 13.896 93.4197 14.928 93.5477 16.16C94.2997 16.112 95.1957 15.952 96.2357 15.68C96.3637 15.648 96.4757 15.632 96.5717 15.632ZM88.6997 20.576C89.2117 20.576 89.6517 20.368 90.0197 19.952C90.4037 19.536 90.6597 18.936 90.7877 18.152C90.2917 17.816 89.9077 17.376 89.6357 16.832C89.3797 16.288 89.2517 15.712 89.2517 15.104C89.2517 14.848 89.2757 14.592 89.3237 14.336H89.2037C88.5637 14.336 88.0277 14.648 87.5957 15.272C87.1797 15.88 86.9717 16.744 86.9717 17.864C86.9717 18.744 87.1397 19.416 87.4757 19.88C87.8277 20.344 88.2357 20.576 88.6997 20.576ZM104.856 15.104C105.208 15.104 105.504 15.232 105.744 15.488C106 15.728 106.128 16.032 106.128 16.4C106.128 16.608 106.08 16.832 105.984 17.072C105.728 17.664 105.368 18.16 104.904 18.56C104.44 18.96 103.928 19.16 103.368 19.16C102.92 19.16 102.536 19 102.216 18.68C101.912 18.36 101.76 17.928 101.76 17.384C101.76 17.08 101.776 16.752 101.808 16.4C101.84 16.144 101.856 15.968 101.856 15.872C101.856 15.744 101.824 15.648 101.76 15.584C101.712 15.52 101.648 15.488 101.568 15.488C101.344 15.488 101.04 15.76 100.656 16.304C100.272 16.832 99.8878 17.536 99.5038 18.416C99.1198 19.296 98.8078 20.224 98.5678 21.2C98.3918 21.968 98.1918 22.48 97.9678 22.736C97.7438 22.992 97.3758 23.12 96.8638 23.12C96.2558 23.12 95.8238 22.8 95.5678 22.16C95.3278 21.52 95.2078 20.496 95.2078 19.088C95.2078 17.008 95.5038 15.032 96.0958 13.16C96.2398 12.696 96.4718 12.36 96.7918 12.152C97.1278 11.928 97.5918 11.816 98.1838 11.816C98.5038 11.816 98.7278 11.856 98.8558 11.936C98.9838 12.016 99.0478 12.168 99.0478 12.392C99.0478 12.648 98.9278 13.224 98.6878 14.12C98.5278 14.76 98.3998 15.32 98.3038 15.8C98.2078 16.28 98.1278 16.872 98.0638 17.576C98.5918 16.2 99.1838 15.08 99.8398 14.216C100.496 13.352 101.136 12.736 101.76 12.368C102.384 12 102.952 11.816 103.464 11.816C103.928 11.816 104.28 11.952 104.52 12.224C104.776 12.48 104.904 12.864 104.904 13.376C104.904 13.68 104.816 14.256 104.64 15.104H104.856Z" fill="black"/>
</svg>
