<svg width="44" height="44" viewBox="0 0 44 44" fill="none" xmlns="http://www.w3.org/2000/svg">
<path d="M22 44C34.1503 44 44 34.1503 44 22C44 9.84974 34.1503 0 22 0C9.84974 0 0 9.84974 0 22C0 34.1503 9.84974 44 22 44Z" fill="#253445"/>
<path fill-rule="evenodd" clip-rule="evenodd" d="M0.0223227 23H43.9777C43.9925 22.6685 44 22.3351 44 22C44 9.84974 34.1503 0 22 0C9.84974 0 0 9.84974 0 22C0 22.3351 0.0074937 22.6685 0.0223227 23Z" fill="#374148"/>
<path d="M32.1404 30.0103C32.1404 30.5995 31.5291 31.0094 30.6529 31.0094H29.0715C28.637 31.3268 28.1811 31.6122 27.707 31.8633H30.6487C32.0152 31.8633 33.0083 31.082 33.0083 30.0039C33.0083 29.2183 32.4784 28.5906 31.6647 28.3088C31.4915 28.5629 31.3059 28.8361 31.1139 29.0753C31.7377 29.2033 32.1404 29.5321 32.1404 30.0103Z" fill="#D05C16"/>
<path d="M15.7256 31.0115C14.5531 31.0115 13.704 31.7139 13.704 32.681C13.704 33.6011 14.5135 34.549 15.5086 34.549H28.2475C28.8024 34.549 29.2551 34.9055 29.2551 35.3453C29.2551 35.785 28.8024 36.1415 28.2475 36.1415H17.0107V36.9955H28.2475C29.2906 36.9955 30.1251 36.2526 30.1251 35.341C30.1251 34.4294 29.2906 33.6843 28.2475 33.6843H15.5086C14.9933 33.6843 14.576 33.1208 14.576 32.6746C14.576 32.2284 15.0496 31.8633 15.7256 31.8633H17.1317C16.6577 31.6122 16.2017 31.3269 15.7673 31.0094L15.7256 31.0115Z" fill="#D05C16"/>
<path d="M12.352 27.1049C12.3517 27.0329 12.3601 26.9612 12.377 26.8914C12.2268 26.5669 12.0891 26.2338 11.9598 25.8944C11.8044 26.053 11.6812 26.2413 11.5971 26.4486C11.5129 26.656 11.4696 26.8782 11.4695 27.1027C11.4695 28.1701 12.3854 28.9579 13.6705 29.0241C13.4032 28.6777 13.1559 28.3156 12.9299 27.9396C12.7653 27.872 12.6233 27.7574 12.5208 27.6093C12.4183 27.4613 12.3597 27.2861 12.352 27.1049Z" fill="#D05C16"/>
<path d="M13.7999 28.136C13.5029 28.1342 13.2098 28.0673 12.9403 27.9396C13.1663 28.3155 13.4136 28.6777 13.6809 29.0241H13.7936H30.6487C30.8048 29.0231 30.9607 29.0382 31.1139 29.0689C31.3059 28.8213 31.4915 28.5651 31.6647 28.3025C31.3378 28.1879 30.9942 28.1315 30.6487 28.136H13.7999Z" fill="#D05C16"/>
<path d="M13.8729 26.0673H32.4408C32.5702 26.0673 32.6933 26.0673 32.8101 26.0545C32.9248 25.7471 33.0187 25.4354 33.1147 25.1173C32.8921 25.156 32.6666 25.1753 32.4408 25.175H13.8729C13.5244 25.1601 13.1764 25.2165 12.8494 25.3407C12.5223 25.465 12.2228 25.6546 11.9681 25.8987C12.0891 26.2381 12.2268 26.5711 12.3854 26.8956C12.4981 26.3982 13.0843 26.0673 13.8729 26.0673Z" fill="#D05C16"/>
<path d="M15.7672 31.0116C16.2016 31.3291 16.6576 31.6144 17.1316 31.8655H27.707C28.1811 31.6144 28.637 31.329 29.0714 31.0116H15.7672Z" fill="#D05C16"/>
<g filter="url(#filter0_f)">
<path d="M33.7508 20.4964C33.7753 20.2304 33.7858 19.9574 33.7928 19.6878V19.5513C33.7633 16.4775 32.5214 13.5395 30.3373 11.3764C28.1532 9.21328 25.2035 7.99986 22.1295 8C19.0785 8.00028 16.1492 9.1964 13.97 11.3317C11.7908 13.4671 10.5354 16.3715 10.4731 19.4218C10.4731 19.4603 10.4731 19.4953 10.4731 19.5303C10.4731 19.8033 10.4731 20.0694 10.5046 20.3389C10.5761 21.4295 10.8024 22.5044 11.1767 23.5313C11.4436 23.2807 11.7579 23.0859 12.1012 22.9585C12.4444 22.831 12.8097 22.7735 13.1755 22.7892H32.6517C32.8863 22.7901 33.1206 22.7701 33.3518 22.7297C33.5606 22.0017 33.6966 21.2548 33.7578 20.4999L33.7508 20.4964Z" fill="url(#paint0_linear)"/>
</g>
<path d="M33.8365 21.1593C33.8574 20.8796 33.872 20.5978 33.8762 20.3053V20.1623C33.838 16.9779 32.5795 13.9362 30.3716 11.6919C28.1637 9.44752 25.1829 8.17997 22.0708 8.16206C18.9587 8.14415 15.9641 9.37732 13.7317 11.5961C11.4993 13.8149 10.2074 16.842 10.1343 20.0257V20.0257C10.1343 20.0641 10.1343 20.1004 10.1343 20.1388C10.1343 20.4206 10.1468 20.7024 10.1656 20.9799C10.2397 22.1153 10.4701 23.2344 10.8499 24.3039C11.1224 24.0438 11.4428 23.8417 11.7924 23.7094C12.1419 23.5771 12.5137 23.5172 12.8861 23.5332H32.7058C32.9462 23.5339 33.1863 23.5139 33.4234 23.4734C33.6361 22.7157 33.7759 21.9385 33.8407 21.1529L33.8365 21.1593Z" fill="#FFD833"/>
<path d="M33.8365 21.1593C33.8574 20.8796 33.872 20.5978 33.8762 20.3053V20.1623C33.838 16.9779 32.5795 13.9362 30.3716 11.6919C28.1637 9.44752 25.1829 8.17997 22.0708 8.16206C18.9587 8.14415 15.9641 9.37732 13.7317 11.5961C11.4993 13.8149 10.2074 16.842 10.1343 20.0257V20.0257C10.1343 20.0641 10.1343 20.1004 10.1343 20.1388C10.1343 20.4206 10.1468 20.7024 10.1656 20.9799C10.2397 22.1153 10.4701 23.2344 10.8499 24.3039C11.1224 24.0438 11.4428 23.8417 11.7924 23.7094C12.1419 23.5771 12.5137 23.5172 12.8861 23.5332H32.7058C32.9462 23.5339 33.1863 23.5139 33.4234 23.4734C33.6361 22.7157 33.7759 21.9385 33.8407 21.1529L33.8365 21.1593Z" fill="url(#paint1_linear)"/>
<path d="M9.3074 24.9777C9.05866 25.0711 8.78078 24.9434 8.69893 24.6906C8.23409 23.2552 7.99777 21.7515 8.00002 20.2372C8.00002 12.3874 14.2797 6 22.0011 6C29.7224 6 36 12.3874 36 20.2372C36.0003 21.2991 35.8842 22.3571 35.6543 23.3916C35.5973 23.648 35.3359 23.7999 35.0822 23.7314V23.7314C34.8334 23.6642 34.6854 23.4098 34.7403 23.1579C34.9491 22.1996 35.0534 21.22 35.0508 20.2372C35.0508 12.9169 29.1925 6.96281 21.9927 6.96281C14.793 6.96281 8.95136 12.9147 8.95136 20.2372C8.94993 21.641 9.16795 23.035 9.59624 24.3665C9.67618 24.615 9.55181 24.886 9.3074 24.9777V24.9777Z" fill="url(#paint2_linear)" fill-opacity="0.8"/>
<defs>
<filter id="filter0_f" x="6.47314" y="4" width="31.3197" height="23.5313" filterUnits="userSpaceOnUse" color-interpolation-filters="sRGB">
<feFlood flood-opacity="0" result="BackgroundImageFix"/>
<feBlend mode="normal" in="SourceGraphic" in2="BackgroundImageFix" result="shape"/>
<feGaussianBlur stdDeviation="2" result="effect1_foregroundBlur"/>
</filter>
<linearGradient id="paint0_linear" x1="22.1295" y1="7.979" x2="22.1295" y2="23.5103" gradientUnits="userSpaceOnUse">
<stop stop-color="#FFD833"/>
<stop offset="1" stop-color="#C94D18"/>
</linearGradient>
<linearGradient id="paint1_linear" x1="22.0017" y1="8.14004" x2="22.0017" y2="24.2821" gradientUnits="userSpaceOnUse">
<stop stop-color="#FFE578"/>
<stop offset="0.140625" stop-color="#FFD833"/>
<stop offset="1" stop-color="#C94D18"/>
</linearGradient>
<linearGradient id="paint2_linear" x1="22" y1="6" x2="22" y2="25.1474" gradientUnits="userSpaceOnUse">
<stop stop-color="#FEE475"/>
<stop offset="0.229167" stop-color="#EDA92A"/>
<stop offset="0.932292" stop-color="#EDAE2A" stop-opacity="0"/>
</linearGradient>
</defs>
</svg>
