<svg width="164" height="44" viewBox="0 0 164 44" fill="none" xmlns="http://www.w3.org/2000/svg">
<path d="M64.848 32.192C62.72 32.192 61.016 31.792 59.736 30.992C58.456 30.176 57.816 28.936 57.816 27.272C57.816 26.392 57.968 25.72 58.272 25.256C58.576 24.792 59.024 24.56 59.616 24.56C60.048 24.56 60.4 24.672 60.672 24.896C60.944 25.12 61.08 25.408 61.08 25.76C61.08 26.08 61.056 26.36 61.008 26.6C61.008 26.664 60.992 26.776 60.96 26.936C60.944 27.096 60.936 27.264 60.936 27.44C60.936 28.16 61.296 28.696 62.016 29.048C62.752 29.4 63.776 29.576 65.088 29.576C66.448 29.576 67.512 29.336 68.28 28.856C69.048 28.36 69.432 27.672 69.432 26.792C69.432 26.248 69.256 25.784 68.904 25.4C68.552 25 68.112 24.672 67.584 24.416C67.056 24.144 66.312 23.816 65.352 23.432C64.12 22.952 63.112 22.496 62.328 22.064C61.56 21.632 60.896 21.048 60.336 20.312C59.792 19.56 59.52 18.632 59.52 17.528C59.52 16.376 59.824 15.352 60.432 14.456C61.056 13.56 61.944 12.864 63.096 12.368C64.264 11.872 65.632 11.624 67.2 11.624C68.368 11.624 69.44 11.8 70.416 12.152C71.392 12.488 72.168 13.008 72.744 13.712C73.336 14.416 73.632 15.28 73.632 16.304C73.632 17.312 73.48 18.072 73.176 18.584C72.872 19.096 72.424 19.352 71.832 19.352C71.416 19.352 71.064 19.224 70.776 18.968C70.504 18.712 70.368 18.408 70.368 18.056C70.368 17.752 70.392 17.472 70.44 17.216C70.488 16.736 70.512 16.432 70.512 16.304C70.512 15.632 70.184 15.12 69.528 14.768C68.872 14.416 68.056 14.24 67.08 14.24C65.704 14.24 64.648 14.496 63.912 15.008C63.192 15.504 62.832 16.208 62.832 17.12C62.832 17.728 63.016 18.248 63.384 18.68C63.768 19.112 64.24 19.472 64.8 19.76C65.36 20.048 66.144 20.392 67.152 20.792C68.368 21.288 69.344 21.736 70.08 22.136C70.816 22.536 71.44 23.08 71.952 23.768C72.48 24.456 72.744 25.304 72.744 26.312C72.744 28.2 72.024 29.656 70.584 30.68C69.16 31.688 67.248 32.192 64.848 32.192ZM77.1234 32.12C76.4034 32.12 75.8114 31.792 75.3474 31.136C74.8994 30.464 74.6754 29.632 74.6754 28.64C74.6754 27.44 74.7554 26.344 74.9154 25.352C75.0754 24.344 75.3394 23.28 75.7074 22.16C75.8674 21.68 76.0914 21.336 76.3794 21.128C76.6674 20.92 77.1234 20.816 77.7474 20.816C78.0994 20.816 78.3394 20.872 78.4674 20.984C78.6114 21.096 78.6834 21.264 78.6834 21.488C78.6834 21.616 78.5954 22.048 78.4194 22.784C78.2594 23.376 78.1314 23.912 78.0354 24.392C77.7154 26.072 77.5554 27.192 77.5554 27.752C77.5554 28.088 77.5954 28.328 77.6754 28.472C77.7554 28.6 77.8834 28.664 78.0594 28.664C78.2994 28.664 78.5954 28.424 78.9474 27.944C79.3154 27.464 79.6994 26.736 80.0994 25.76C80.5154 24.784 80.9154 23.584 81.2994 22.16C81.4274 21.68 81.6194 21.336 81.8754 21.128C82.1474 20.92 82.5474 20.816 83.0754 20.816C83.4434 20.816 83.6994 20.864 83.8434 20.96C83.9874 21.04 84.0594 21.2 84.0594 21.44C84.0594 21.84 83.8594 22.936 83.4594 24.728C83.0114 26.776 82.7874 28.04 82.7874 28.52C82.7874 28.824 82.8514 29.064 82.9794 29.24C83.1074 29.4 83.2754 29.48 83.4834 29.48C83.8034 29.48 84.1794 29.288 84.6114 28.904C85.0594 28.504 85.6514 27.864 86.3874 26.984C86.5794 26.76 86.7954 26.648 87.0354 26.648C87.2434 26.648 87.4034 26.744 87.5154 26.936C87.6434 27.128 87.7074 27.392 87.7074 27.728C87.7074 28.368 87.5554 28.864 87.2514 29.216C86.5634 30.064 85.8194 30.76 85.0194 31.304C84.2354 31.848 83.3394 32.12 82.3314 32.12C81.5634 32.12 80.9954 31.824 80.6274 31.232C80.2754 30.64 80.0994 29.808 80.0994 28.736C79.8274 29.824 79.4194 30.664 78.8754 31.256C78.3314 31.832 77.7474 32.12 77.1234 32.12ZM87.4654 32.12C86.8574 32.12 86.4254 31.8 86.1694 31.16C85.9294 30.52 85.8094 29.496 85.8094 28.088C85.8094 26.008 86.1054 24.032 86.6974 22.16C86.8414 21.696 87.0734 21.36 87.3934 21.152C87.7294 20.928 88.1934 20.816 88.7854 20.816C89.1054 20.816 89.3294 20.856 89.4574 20.936C89.5854 21.016 89.6494 21.168 89.6494 21.392C89.6494 21.648 89.5294 22.224 89.2894 23.12C89.1294 23.76 89.0014 24.32 88.9054 24.8C88.8094 25.28 88.7294 25.872 88.6654 26.576C89.1934 25.2 89.7854 24.08 90.4414 23.216C91.0974 22.352 91.7374 21.736 92.3614 21.368C93.0014 21 93.5854 20.816 94.1134 20.816C95.1534 20.816 95.6734 21.336 95.6734 22.376C95.6734 23 95.4974 24.128 95.1454 25.76C94.8414 27.152 94.6894 28.072 94.6894 28.52C94.6894 29.16 94.9214 29.48 95.3854 29.48C95.7054 29.48 96.0814 29.288 96.5134 28.904C96.9614 28.504 97.5534 27.864 98.2894 26.984C98.4814 26.76 98.6974 26.648 98.9374 26.648C99.1454 26.648 99.3054 26.744 99.4174 26.936C99.5454 27.128 99.6094 27.392 99.6094 27.728C99.6094 28.368 99.4574 28.864 99.1534 29.216C98.4654 30.064 97.7214 30.76 96.9214 31.304C96.1374 31.848 95.2414 32.12 94.2334 32.12C93.4174 32.12 92.8014 31.888 92.3854 31.424C91.9694 30.944 91.7614 30.256 91.7614 29.36C91.7614 28.912 91.8734 28.112 92.0974 26.96C92.3054 25.952 92.4094 25.256 92.4094 24.872C92.4094 24.616 92.3214 24.488 92.1454 24.488C91.9374 24.488 91.6414 24.76 91.2574 25.304C90.8894 25.832 90.5054 26.536 90.1054 27.416C89.7214 28.296 89.4094 29.224 89.1694 30.2C88.9934 30.952 88.7854 31.464 88.5454 31.736C88.3214 31.992 87.9614 32.12 87.4654 32.12ZM114.636 27.632C114.876 27.536 115.076 27.488 115.236 27.488C115.492 27.488 115.684 27.584 115.812 27.776C115.94 27.968 116.004 28.216 116.004 28.52C116.004 29 115.884 29.408 115.644 29.744C115.42 30.08 115.028 30.384 114.468 30.656C113.524 31.104 112.3 31.464 110.796 31.736C109.292 31.992 107.812 32.12 106.356 32.12C104.34 32.12 102.652 31.896 101.292 31.448C99.9316 30.984 98.9156 30.352 98.2436 29.552C97.5876 28.752 97.2596 27.848 97.2596 26.84C97.2596 25.464 97.6996 24.296 98.5796 23.336C99.4756 22.36 100.788 21.656 102.516 21.224C101.572 20.952 100.844 20.472 100.332 19.784C99.8356 19.096 99.5876 18.328 99.5876 17.48C99.5876 16.328 99.9476 15.312 100.668 14.432C101.404 13.536 102.388 12.848 103.62 12.368C104.852 11.888 106.204 11.648 107.676 11.648C109.66 11.648 111.148 12.08 112.14 12.944C113.132 13.792 113.628 14.896 113.628 16.256C113.628 17.2 113.452 17.968 113.1 18.56C112.764 19.136 112.276 19.424 111.636 19.424C111.188 19.424 110.836 19.328 110.58 19.136C110.324 18.928 110.196 18.624 110.196 18.224C110.196 17.952 110.236 17.656 110.316 17.336C110.396 16.808 110.436 16.448 110.436 16.256C110.436 15.68 110.22 15.216 109.788 14.864C109.356 14.496 108.636 14.312 107.628 14.312C106.268 14.312 105.18 14.6 104.364 15.176C103.548 15.752 103.14 16.528 103.14 17.504C103.14 18.256 103.444 18.88 104.052 19.376C104.676 19.856 105.684 20.12 107.076 20.168C107.428 20.184 107.676 20.264 107.82 20.408C107.964 20.552 108.036 20.792 108.036 21.128C108.036 22.184 107.556 22.72 106.596 22.736C105.268 22.768 104.164 22.952 103.284 23.288C102.42 23.624 101.788 24.056 101.388 24.584C101.004 25.096 100.812 25.648 100.812 26.24C100.812 27.232 101.276 27.984 102.204 28.496C103.132 28.992 104.604 29.24 106.62 29.24C107.948 29.24 109.348 29.088 110.82 28.784C112.308 28.464 113.58 28.08 114.636 27.632ZM127.284 26.648C127.492 26.648 127.652 26.744 127.764 26.936C127.892 27.128 127.956 27.392 127.956 27.728C127.956 28.368 127.804 28.864 127.5 29.216C126.844 30.016 126.124 30.704 125.34 31.28C124.556 31.84 123.78 32.12 123.012 32.12C121.796 32.12 120.868 31.408 120.228 29.984C119.556 30.832 118.964 31.4 118.452 31.688C117.956 31.976 117.372 32.12 116.7 32.12C115.724 32.12 114.916 31.76 114.276 31.04C113.652 30.304 113.34 29.352 113.34 28.184C113.34 26.904 113.612 25.72 114.156 24.632C114.7 23.528 115.444 22.632 116.388 21.944C117.348 21.24 118.42 20.824 119.604 20.696C119.908 17.592 120.484 14.944 121.332 12.752C122.196 10.544 123.324 9.44 124.716 9.44C125.404 9.44 125.972 9.752 126.42 10.376C126.884 11 127.116 11.944 127.116 13.208C127.116 15 126.676 17.096 125.796 19.496C124.916 21.896 123.74 24.36 122.268 26.888C122.332 27.816 122.468 28.48 122.676 28.88C122.9 29.28 123.18 29.48 123.516 29.48C123.948 29.48 124.388 29.288 124.836 28.904C125.284 28.52 125.884 27.88 126.636 26.984C126.828 26.76 127.044 26.648 127.284 26.648ZM124.452 11.792C124.148 11.792 123.844 12.336 123.54 13.424C123.236 14.496 122.972 15.904 122.748 17.648C122.54 19.392 122.388 21.216 122.292 23.12C124.084 19.216 124.98 16.08 124.98 13.712C124.98 13.104 124.924 12.632 124.812 12.296C124.716 11.96 124.596 11.792 124.452 11.792ZM117.54 29.696C117.844 29.696 118.148 29.576 118.452 29.336C118.756 29.08 119.14 28.616 119.604 27.944C119.444 27.08 119.364 26.112 119.364 25.04C119.364 24.656 119.38 24.032 119.412 23.168C118.532 23.44 117.796 24.032 117.204 24.944C116.628 25.84 116.34 26.84 116.34 27.944C116.34 29.112 116.74 29.696 117.54 29.696ZM129.148 19.232C128.476 19.232 127.972 19.08 127.636 18.776C127.3 18.456 127.132 18.016 127.132 17.456C127.132 16.896 127.348 16.432 127.78 16.064C128.228 15.68 128.78 15.488 129.436 15.488C130.028 15.488 130.508 15.632 130.876 15.92C131.244 16.208 131.428 16.616 131.428 17.144C131.428 17.784 131.22 18.296 130.804 18.68C130.388 19.048 129.836 19.232 129.148 19.232ZM128.956 32.12C127.916 32.12 127.156 31.752 126.676 31.016C126.212 30.28 125.98 29.304 125.98 28.088C125.98 27.368 126.068 26.448 126.244 25.328C126.436 24.192 126.676 23.136 126.964 22.16C127.108 21.648 127.3 21.296 127.54 21.104C127.78 20.912 128.164 20.816 128.692 20.816C129.508 20.816 129.916 21.088 129.916 21.632C129.916 22.032 129.764 22.96 129.46 24.416C129.076 26.176 128.884 27.368 128.884 27.992C128.884 28.472 128.948 28.84 129.076 29.096C129.204 29.352 129.42 29.48 129.724 29.48C130.012 29.48 130.372 29.28 130.804 28.88C131.236 28.48 131.812 27.848 132.532 26.984C132.724 26.76 132.94 26.648 133.18 26.648C133.388 26.648 133.548 26.744 133.66 26.936C133.788 27.128 133.852 27.392 133.852 27.728C133.852 28.368 133.7 28.864 133.396 29.216C131.812 31.152 130.332 32.12 128.956 32.12ZM142.614 26.648C142.822 26.648 142.982 26.744 143.094 26.936C143.222 27.128 143.286 27.392 143.286 27.728C143.286 28.368 143.134 28.864 142.83 29.216C142.142 30.064 141.39 30.76 140.574 31.304C139.758 31.848 138.822 32.12 137.766 32.12C134.502 32.12 132.87 29.824 132.87 25.232C132.87 24.528 132.894 23.816 132.942 23.096H132.006C131.526 23.096 131.198 23.008 131.022 22.832C130.862 22.656 130.782 22.376 130.782 21.992C130.782 21.096 131.142 20.648 131.862 20.648H133.23C133.502 18.888 133.918 17.28 134.478 15.824C135.038 14.368 135.71 13.208 136.494 12.344C137.294 11.48 138.15 11.048 139.062 11.048C139.734 11.048 140.262 11.344 140.646 11.936C141.03 12.528 141.222 13.272 141.222 14.168C141.222 16.648 140.182 18.808 138.102 20.648H140.79C141.046 20.648 141.23 20.704 141.342 20.816C141.454 20.928 141.51 21.136 141.51 21.44C141.51 22.544 140.606 23.096 138.798 23.096H135.87C135.838 23.896 135.822 24.52 135.822 24.968C135.822 26.632 136.014 27.8 136.398 28.472C136.798 29.144 137.422 29.48 138.27 29.48C138.958 29.48 139.566 29.272 140.094 28.856C140.622 28.44 141.246 27.816 141.966 26.984C142.158 26.76 142.374 26.648 142.614 26.648ZM138.414 13.352C138.174 13.352 137.902 13.656 137.598 14.264C137.31 14.856 137.03 15.688 136.758 16.76C136.502 17.816 136.286 18.992 136.11 20.288C137.054 19.472 137.758 18.56 138.222 17.552C138.702 16.528 138.942 15.6 138.942 14.768C138.942 13.824 138.766 13.352 138.414 13.352ZM153.572 24.632C153.78 24.632 153.94 24.736 154.052 24.944C154.164 25.152 154.22 25.416 154.22 25.736C154.22 26.504 153.988 26.96 153.524 27.104C152.564 27.44 151.508 27.632 150.356 27.68C150.052 29.024 149.452 30.104 148.556 30.92C147.66 31.72 146.644 32.12 145.508 32.12C144.548 32.12 143.724 31.888 143.036 31.424C142.364 30.96 141.852 30.344 141.5 29.576C141.148 28.808 140.972 27.976 140.972 27.08C140.972 25.864 141.204 24.784 141.668 23.84C142.132 22.88 142.772 22.136 143.588 21.608C144.404 21.064 145.308 20.792 146.3 20.792C147.516 20.792 148.492 21.216 149.228 22.064C149.98 22.896 150.42 23.928 150.548 25.16C151.3 25.112 152.196 24.952 153.236 24.68C153.364 24.648 153.476 24.632 153.572 24.632ZM145.7 29.576C146.212 29.576 146.652 29.368 147.02 28.952C147.404 28.536 147.66 27.936 147.788 27.152C147.292 26.816 146.908 26.376 146.636 25.832C146.38 25.288 146.252 24.712 146.252 24.104C146.252 23.848 146.276 23.592 146.324 23.336H146.204C145.564 23.336 145.028 23.648 144.596 24.272C144.18 24.88 143.972 25.744 143.972 26.864C143.972 27.744 144.14 28.416 144.476 28.88C144.828 29.344 145.236 29.576 145.7 29.576ZM161.856 24.104C162.208 24.104 162.504 24.232 162.744 24.488C163 24.728 163.128 25.032 163.128 25.4C163.128 25.608 163.08 25.832 162.984 26.072C162.728 26.664 162.368 27.16 161.904 27.56C161.44 27.96 160.928 28.16 160.368 28.16C159.92 28.16 159.536 28 159.216 27.68C158.912 27.36 158.76 26.928 158.76 26.384C158.76 26.08 158.776 25.752 158.808 25.4C158.84 25.144 158.856 24.968 158.856 24.872C158.856 24.744 158.824 24.648 158.76 24.584C158.712 24.52 158.648 24.488 158.568 24.488C158.344 24.488 158.04 24.76 157.656 25.304C157.272 25.832 156.888 26.536 156.504 27.416C156.12 28.296 155.808 29.224 155.568 30.2C155.392 30.968 155.192 31.48 154.968 31.736C154.744 31.992 154.376 32.12 153.864 32.12C153.256 32.12 152.824 31.8 152.568 31.16C152.328 30.52 152.208 29.496 152.208 28.088C152.208 26.008 152.504 24.032 153.096 22.16C153.24 21.696 153.472 21.36 153.792 21.152C154.128 20.928 154.592 20.816 155.184 20.816C155.504 20.816 155.728 20.856 155.856 20.936C155.984 21.016 156.048 21.168 156.048 21.392C156.048 21.648 155.928 22.224 155.688 23.12C155.528 23.76 155.4 24.32 155.304 24.8C155.208 25.28 155.128 25.872 155.064 26.576C155.592 25.2 156.184 24.08 156.84 23.216C157.496 22.352 158.136 21.736 158.76 21.368C159.384 21 159.952 20.816 160.464 20.816C160.928 20.816 161.28 20.952 161.52 21.224C161.776 21.48 161.904 21.864 161.904 22.376C161.904 22.68 161.816 23.256 161.64 24.104H161.856Z" fill="black"/>
<path d="M22 44C34.1503 44 44 34.1503 44 22C44 9.84974 34.1503 0 22 0C9.84974 0 0 9.84974 0 22C0 34.1503 9.84974 44 22 44Z" fill="#253445"/>
<path fill-rule="evenodd" clip-rule="evenodd" d="M0.0223227 23H43.9777C43.9925 22.6685 44 22.3351 44 22C44 9.84974 34.1503 0 22 0C9.84974 0 0 9.84974 0 22C0 22.3351 0.0074937 22.6685 0.0223227 23Z" fill="#374148"/>
<path d="M32.1404 30.0103C32.1404 30.5995 31.5291 31.0094 30.6529 31.0094H29.0715C28.637 31.3268 28.1811 31.6122 27.707 31.8633H30.6487C32.0152 31.8633 33.0083 31.082 33.0083 30.0039C33.0083 29.2183 32.4784 28.5906 31.6647 28.3088C31.4915 28.5629 31.3059 28.8361 31.1139 29.0753C31.7377 29.2033 32.1404 29.5321 32.1404 30.0103Z" fill="#D05C16"/>
<path d="M15.7256 31.0115C14.5531 31.0115 13.704 31.7139 13.704 32.681C13.704 33.6011 14.5135 34.549 15.5086 34.549H28.2475C28.8024 34.549 29.2551 34.9055 29.2551 35.3453C29.2551 35.785 28.8024 36.1415 28.2475 36.1415H17.0107V36.9955H28.2475C29.2906 36.9955 30.1251 36.2526 30.1251 35.341C30.1251 34.4294 29.2906 33.6843 28.2475 33.6843H15.5086C14.9933 33.6843 14.576 33.1208 14.576 32.6746C14.576 32.2284 15.0496 31.8633 15.7256 31.8633H17.1317C16.6577 31.6122 16.2017 31.3269 15.7673 31.0094L15.7256 31.0115Z" fill="#D05C16"/>
<path d="M12.352 27.1049C12.3517 27.0329 12.3601 26.9612 12.377 26.8914C12.2268 26.5669 12.0891 26.2338 11.9598 25.8944C11.8044 26.053 11.6812 26.2413 11.5971 26.4486C11.5129 26.656 11.4696 26.8782 11.4695 27.1027C11.4695 28.1701 12.3854 28.9579 13.6705 29.0241C13.4032 28.6777 13.1559 28.3156 12.9299 27.9396C12.7653 27.872 12.6233 27.7574 12.5208 27.6093C12.4183 27.4613 12.3597 27.2861 12.352 27.1049Z" fill="#D05C16"/>
<path d="M13.7999 28.136C13.5029 28.1342 13.2098 28.0673 12.9403 27.9396C13.1663 28.3155 13.4136 28.6777 13.6809 29.0241H13.7936H30.6487C30.8048 29.0231 30.9607 29.0382 31.1139 29.0689C31.3059 28.8213 31.4915 28.5651 31.6647 28.3025C31.3378 28.1879 30.9942 28.1315 30.6487 28.136H13.7999Z" fill="#D05C16"/>
<path d="M13.8729 26.0673H32.4408C32.5702 26.0673 32.6933 26.0673 32.8101 26.0545C32.9248 25.7471 33.0187 25.4354 33.1147 25.1173C32.8921 25.156 32.6666 25.1753 32.4408 25.175H13.8729C13.5244 25.1601 13.1764 25.2165 12.8494 25.3407C12.5223 25.465 12.2228 25.6546 11.9681 25.8987C12.0891 26.2381 12.2268 26.5711 12.3854 26.8956C12.4981 26.3982 13.0843 26.0673 13.8729 26.0673Z" fill="#D05C16"/>
<path d="M15.7672 31.0116C16.2016 31.3291 16.6576 31.6144 17.1316 31.8655H27.707C28.1811 31.6144 28.637 31.329 29.0714 31.0116H15.7672Z" fill="#D05C16"/>
<g filter="url(#filter0_f)">
<path d="M33.7508 20.4964C33.7753 20.2304 33.7858 19.9574 33.7928 19.6878V19.5513C33.7633 16.4775 32.5214 13.5395 30.3373 11.3764C28.1532 9.21328 25.2035 7.99986 22.1295 8C19.0785 8.00028 16.1492 9.1964 13.97 11.3317C11.7908 13.4671 10.5354 16.3715 10.4731 19.4218C10.4731 19.4603 10.4731 19.4953 10.4731 19.5303C10.4731 19.8033 10.4731 20.0694 10.5046 20.3389C10.5761 21.4295 10.8024 22.5044 11.1767 23.5313C11.4436 23.2807 11.7579 23.0859 12.1012 22.9585C12.4444 22.831 12.8097 22.7735 13.1755 22.7892H32.6517C32.8863 22.7901 33.1206 22.7701 33.3518 22.7297C33.5606 22.0017 33.6966 21.2548 33.7578 20.4999L33.7508 20.4964Z" fill="url(#paint0_linear)"/>
</g>
<path d="M33.8365 21.1593C33.8574 20.8796 33.872 20.5978 33.8762 20.3053V20.1623C33.838 16.9779 32.5795 13.9362 30.3716 11.6919C28.1637 9.44752 25.1829 8.17997 22.0708 8.16206C18.9587 8.14415 15.9641 9.37732 13.7317 11.5961C11.4993 13.8149 10.2074 16.842 10.1343 20.0257V20.0257C10.1343 20.0641 10.1343 20.1004 10.1343 20.1388C10.1343 20.4206 10.1468 20.7024 10.1656 20.9799C10.2397 22.1153 10.4701 23.2344 10.8499 24.3039C11.1224 24.0438 11.4428 23.8417 11.7924 23.7094C12.1419 23.5771 12.5137 23.5172 12.8861 23.5332H32.7058C32.9462 23.5339 33.1863 23.5139 33.4234 23.4734C33.6361 22.7157 33.7759 21.9385 33.8407 21.1529L33.8365 21.1593Z" fill="#FFD833"/>
<path d="M33.8365 21.1593C33.8574 20.8796 33.872 20.5978 33.8762 20.3053V20.1623C33.838 16.9779 32.5795 13.9362 30.3716 11.6919C28.1637 9.44752 25.1829 8.17997 22.0708 8.16206C18.9587 8.14415 15.9641 9.37732 13.7317 11.5961C11.4993 13.8149 10.2074 16.842 10.1343 20.0257V20.0257C10.1343 20.0641 10.1343 20.1004 10.1343 20.1388C10.1343 20.4206 10.1468 20.7024 10.1656 20.9799C10.2397 22.1153 10.4701 23.2344 10.8499 24.3039C11.1224 24.0438 11.4428 23.8417 11.7924 23.7094C12.1419 23.5771 12.5137 23.5172 12.8861 23.5332H32.7058C32.9462 23.5339 33.1863 23.5139 33.4234 23.4734C33.6361 22.7157 33.7759 21.9385 33.8407 21.1529L33.8365 21.1593Z" fill="url(#paint1_linear)"/>
<path d="M9.3074 24.9777C9.05866 25.0711 8.78078 24.9434 8.69893 24.6906C8.23409 23.2552 7.99777 21.7515 8.00002 20.2372C8.00002 12.3874 14.2797 6 22.0011 6C29.7224 6 36 12.3874 36 20.2372C36.0003 21.2991 35.8842 22.3571 35.6543 23.3916C35.5973 23.648 35.3359 23.7999 35.0822 23.7314V23.7314C34.8334 23.6642 34.6854 23.4098 34.7403 23.1579C34.9491 22.1996 35.0534 21.22 35.0508 20.2372C35.0508 12.9169 29.1925 6.96281 21.9927 6.96281C14.793 6.96281 8.95136 12.9147 8.95136 20.2372C8.94993 21.641 9.16795 23.035 9.59624 24.3665C9.67618 24.615 9.55181 24.886 9.3074 24.9777V24.9777Z" fill="url(#paint2_linear)" fill-opacity="0.8"/>
<defs>
<filter id="filter0_f" x="6.47314" y="4" width="31.3197" height="23.5313" filterUnits="userSpaceOnUse" color-interpolation-filters="sRGB">
<feFlood flood-opacity="0" result="BackgroundImageFix"/>
<feBlend mode="normal" in="SourceGraphic" in2="BackgroundImageFix" result="shape"/>
<feGaussianBlur stdDeviation="2" result="effect1_foregroundBlur"/>
</filter>
<linearGradient id="paint0_linear" x1="22.1295" y1="7.979" x2="22.1295" y2="23.5103" gradientUnits="userSpaceOnUse">
<stop stop-color="#FFD833"/>
<stop offset="1" stop-color="#C94D18"/>
</linearGradient>
<linearGradient id="paint1_linear" x1="22.0017" y1="8.14004" x2="22.0017" y2="24.2821" gradientUnits="userSpaceOnUse">
<stop stop-color="#FFE578"/>
<stop offset="0.140625" stop-color="#FFD833"/>
<stop offset="1" stop-color="#C94D18"/>
</linearGradient>
<linearGradient id="paint2_linear" x1="22" y1="6" x2="22" y2="25.1474" gradientUnits="userSpaceOnUse">
<stop stop-color="#FEE475"/>
<stop offset="0.229167" stop-color="#EDA92A"/>
<stop offset="0.932292" stop-color="#EDAE2A" stop-opacity="0"/>
</linearGradient>
</defs>
</svg>
